{"title":"3 Days To Kill 2014 HDCAM XViD AC3 ReLeNTLesS","uid":9785988,"size":1335638595,"categoryP":"video","categoryS":"movies","magnet":"?xt=urn:btih:ab5f0f9e67865dd53b51207f3acb61f95295cc49&amp;dn=3+Days+To+Kill+2014+HDCAM+XViD+AC3+ReLeNTLesS&amp;tr=udp%3A%2F%2Ftracker.openbittorrent.com%3A80&amp;tr=udp%3A%2F%2Fopen.demonii.com%3A1337&amp;tr=udp%3A%2F%2Ftracker.coppersurfer.tk%3A6969&amp;tr=udp%3A%2F%2Fexodus.desync.com%3A6969","seeders":1,"leechers":0,"uploader":".BONE.","files":3,"time":1395160868,"description":"A dying Secret Service Agent trying to reconnect with his estranged daughter is offered an experimental drug that could save his life in exchange for one last assignment.\n\niMDB: http://www.imdb.com/title/tt2172934/\n\nGENRAL iNF0\nComplete name : 3 Days.To.Kill.2014.HDCAM.XViD.AC3.ReLeNTLesS.avi\nFormat : AVI\nFormat/Info : Audio Video Interleave\nFile size : 1.23 GiB\nDuration : 1h 50mn\nOverall bit rate : 1 589 Kbps\n\nViDE0 iNF0\nID : 0\nFormat : MPEG-4 Visual\nFormat profile : Advanced Simple@L5\nFormat settings, BVOP : 2\nFormat settings, QPel : No\nFormat settings, GMC : No warppoints\nFormat settings, Matrix : Default (H.263)\nCodec ID : XVID\nCodec ID/Hint : XviD\nDuration : 1h 50mn\nBit rate : 1 389 Kbps\nWidth : 688 pixels\nHeight : 288 pixels\nDisplay aspect ratio : 2.40:1\nFrame rate : 25.000 fps\nColor space : YUV\nChroma subsampling : 4:2:0\nBit depth : 8 bits\nScan type : Progressive\nCompression mode : Lossy\nBits/(Pixel*Frame) : 0.280\nStream size : 1.08 GiB (87%)\nWriting library : XviD 1.2.1 (UTC 2008-12-04)\n\nAUDi0 iNF0\nID : 1\nFormat : AC-3\nFormat/Info : Audio Coding 3\nMode extension : CM (complete main)\nFormat settings, Endianness : Big\nCodec ID : 2000\nDuration : 1h 50mn\nBit rate mode : Constant\nBit rate : 192 Kbps\nChannel(s) : 2 channels\nChannel positions : Front: L R\nSampling rate : 48.0 KHz\nBit depth : 16 bits\nCompression mode : Lossy\nStream size : 152 MiB (12%)\nAlignment : Aligned on interleaves\nInterleave, duration : 64 ms (1.60 video frames)\nInterleave, preload duration : 192 ms\nTitle : 3 Days.To.Killl.ReLeNTLesS.cam.audio.English.\nSource : MATiNE Thanks\nSample Include : Yes\n &lt;a href=&quot;\nhttp://t1.someimage.com/rdInqrU.jpg&quot; rel=&quot;nofollow&quot; target=&quot;_NEW&quot;&gt;\nhttp://t1.someimage.com/rdInqrU.jpg&lt;/a&gt; &lt;a href=&quot;\nhttp://t1.someimage.com/ByB1qv6.jpg&quot; rel=&quot;nofollow&quot; target=&quot;_NEW&quot;&gt;\nhttp://t1.someimage.com/ByB1qv6.jpg&lt;/a&gt; &lt;a href=&quot;\nhttp://t1.someimage.com/cJLZfMC.jpg&quot; rel=&quot;nofollow&quot; target=&quot;_NEW&quot;&gt;\nhttp://t1.someimage.com/cJLZfMC.jpg&lt;/a&gt; &lt;a href=&quot;\nhttp://t1.someimage.com/C355If6.jpg&quot; rel=&quot;nofollow&quot; target=&quot;_NEW&quot;&gt;\nhttp://t1.someimage.com/C355If6.jpg&lt;/a&gt; &lt;a href=&quot;\nhttp://t1.someimage.com/bxJncIi.jpg&quot; rel=&quot;nofollow&quot; target=&quot;_NEW&quot;&gt;\nhttp://t1.someimage.com/bxJncIi.jpg&lt;/a&gt;","torrent":{"xt":"urn:btih:ab5f0f9e67865dd53b51207f3acb61f95295cc49","amp;dn":"3+Days+To+Kill+2014+HDCAM+XViD+AC3+ReLeNTLesS","amp;tr":["udp%3A%2F%2Ftracker.openbittorrent.com%3A80","udp%3A%2F%2Fopen.demonii.com%3A1337","udp%3A%2F%2Ftracker.coppersurfer.tk%3A6969","udp%3A%2F%2Fexodus.desync.com%3A6969"],"infoHash":"ab5f0f9e67865dd53b51207f3acb61f95295cc49","infoHashBuffer":{"type":"Buffer","data":[171,95,15,158,103,134,93,213,59,81,32,127,58,203,97,249,82,149,204,73]},"announce":[],"urlList":[]}}